# xmcd CD database file
#
# Track frame offsets:
#	150
#	13407
#	33469
#	48968
#	61530
#	80051
#	95199
#	107213
#	121502
#	139797
#	152008
#	160341
#	180750
#	193868
#
# Disc length: 2849 seconds
#
# Revision: 1
# Processed by: cddbd v1.5.2PL0 Copyright (c) Steve Scherf et al.
# Submitted via: CDex 1.70beta2
#
DISCID=b30b1f0e
DTITLE=Lewis, Scruggs and Long - Lifetimes
DYEAR=2007
DGENRE=Country
TTITLE0=All the Good Times Are Past and Gone
TTITLE1=James White
TTITLE2=Heaven Is a Small Town
TTITLE3=Obelisk Flour
TTITLE4=The Has Been
TTITLE5=The Preacher and the Bear
TTITLE6=Gotta Travel On
TTITLE7=One More Yesterday with You
TTITLE8=I Will Find You Again
TTITLE9=The Bluebirds Singing for Me
TTITLE10=Catamount Chase Breakdown
TTITLE11=The Five-String Song
TTITLE12=I'm Not Falling for You
TTITLE13=The Road Before Me
EXTD=YEAR: 2007
EXTT0=
EXTT1=
EXTT2=
EXTT3=
EXTT4=
EXTT5=
EXTT6=
EXTT7=
EXTT8=
EXTT9=
EXTT10=
EXTT11=
EXTT12=
EXTT13=
PLAYORDER=
